<svg xmlns="http://www.w3.org/2000/svg" data-name="Layer 1" viewBox="0 0 100 100" x="0px" y="0px"><path d="m74.3064296,27.9533674H25.6937091c-1.3247636,0-2.3987238,1.0739602-2.3987238,2.3985851v49.1245925c0,8.5733706,6.9502231,15.523455,15.5235937,15.523455h22.3629806c8.5733706,0,15.523455-6.9500844,15.523455-15.523455V30.3519525c0-1.3246249-1.0738215-2.3985851-2.3985851-2.3985851Z"/><path d="m81.7420295,13.7345618h-19.8858807l-1.55143-6.1104201c-.3918803-1.543523-1.7812868-2.6241417-3.3736388-2.6241417h-13.8621599c-1.592352,0-2.9816198,1.0806187-3.3735001,2.6241417l-1.55143,6.1104201h-19.8860195c-1.4343514,0-2.5972302,1.1627402-2.5972302,2.5972302v5.419601c0,1.4343514,1.1627402,2.5970915,2.5970915,2.5970915h63.4843363c1.4343514,0,2.5970915-1.1627402,2.5970915-2.5970915v-5.419601c0-1.4344901-1.1627402-2.5972302-2.5972302-2.5972302Z"/></svg>